# xmcd CD database file
#
# Track frame offsets:
#	150
#	19500
#	42980
#	64325
#	84175
#	99620
#	120037
#	136100
#	153925
#
# Disc length: 2253 seconds
#
# Revision: 4
# Processed by: cddbd v1.5.2PL0 Copyright (c) Steve Scherf et al.
# Submitted via: CDex 1.50beta10
#
DISCID=5f08cb09
DTITLE=Charlie Daniels Band - Full Moon
DYEAR=1980
DGENRE=Southern Rock
TTITLE0=The Legend Of Wooley Swamp
TTITLE1=Carolina (I Remember You)
TTITLE2=Lonesome Boy From Dixie
TTITLE3=No Potion For The Pain
TTITLE4=El Toreador
TTITLE5=South Sea Song
TTITLE6=Dance, Gypsy, Dance
TTITLE7=Money
TTITLE8=In America
EXTD=YEAR: 1980
EXTT0=
EXTT1=
EXTT2=
EXTT3=
EXTT4=
EXTT5=
EXTT6=
EXTT7=
EXTT8=
PLAYORDER=
